<?xml version="1.0" standalone="no"?>
<!DOCTYPE svg PUBLIC "-//W3C//DTD SVG 20010904//EN"
 "http://www.w3.org/TR/2001/REC-SVG-20010904/DTD/svg10.dtd">
<svg version="1.0" xmlns="http://www.w3.org/2000/svg"
 width="225.000000pt" height="225.000000pt" viewBox="0 0 225.000000 225.000000"
 preserveAspectRatio="xMidYMid meet">

<g transform="translate(0.000000,225.000000) scale(0.100000,-0.100000)"
fill="#000000" stroke="none">
<path d="M1035 2010 c-124 -13 -290 -67 -311 -102 -5 -8 -2 -9 12 -4 10 4 26
10 34 13 13 4 13 4 0 -6 -8 -5 -16 -20 -16 -31 -1 -18 3 -21 25 -15 14 4 22 3
18 -1 -4 -5 9 -14 30 -21 l38 -12 -35 5 c-26 4 -31 3 -20 -5 8 -6 28 -11 45
-11 27 0 24 -3 -25 -27 -80 -40 -159 -95 -214 -149 -47 -47 -136 -164 -136
-180 0 -5 -8 -18 -17 -29 -11 -14 -14 -15 -10 -4 4 13 -1 16 -26 13 -18 -1
-26 0 -19 3 17 7 15 23 -3 23 -8 0 -15 7 -15 15 0 8 -9 15 -20 15 -11 0 -20 7
-20 15 0 31 -18 13 -43 -43 -91 -201 -92 -479 -5 -690 109 -262 347 -462 628
-527 96 -22 279 -22 378 -1 93 20 224 74 215 89 -4 7 0 8 11 4 12 -5 15 -3 9
6 -4 6 -8 15 -8 19 0 3 -4 10 -9 15 -5 4 -6 3 -2 -4 13 -24 -15 -23 -39 1 -14
15 -30 26 -35 26 -5 0 -11 4 -14 9 -4 5 3 7 14 4 11 -3 20 0 20 6 0 11 -17 15
-60 13 -19 -1 -16 2 15 15 55 23 181 120 241 186 56 61 124 159 124 177 0 10
3 10 14 1 11 -10 16 -9 23 4 7 12 12 8 23 -20 9 -22 23 -38 37 -41 13 -4 23
-10 23 -15 0 -5 4 -9 9 -9 13 0 60 122 77 203 20 96 20 282 0 372 -35 150 -91
262 -193 387 -101 124 -286 243 -439 282 -51 13 -237 38 -254 34 -3 0 -37 -4
-75 -8z m-245 -124 c0 -11 -19 -15 -25 -6 -3 5 1 10 9 10 9 0 16 -2 16 -4z
m514 -56 c64 -20 26 -29 -54 -13 -80 16 -222 12 -294 -8 -25 -7 -42 -7 -48 -1
-7 7 12 15 53 26 74 18 279 16 343 -4z m71 -38 c-3 -3 -11 0 -18 7 -9 10 -8
11 6 5 10 -3 15 -9 12 -12z m-51 -76 c37 -13 73 -29 79 -35 6 -6 14 -11 19
-11 8 0 55 -31 111 -74 54 -42 118 -128 159 -216 33 -71 44 -113 54 -205 2
-22 6 -55 8 -72 2 -19 -1 -33 -8 -34 -6 -1 3 -4 19 -8 19 -5 29 -12 27 -22
-24 -99 -45 -167 -57 -186 -9 -13 -13 -27 -11 -32 3 -5 -1 -15 -10 -22 -8 -7
-22 -26 -31 -43 -8 -17 -28 -44 -44 -61 -15 -16 -29 -34 -31 -40 -2 -5 -6 -9
-9 -8 -3 1 -20 -11 -37 -27 -17 -16 -41 -31 -52 -35 -11 -4 -18 -10 -15 -14 6
-11 -107 -70 -122 -64 -7 3 -13 0 -13 -5 0 -5 -8 -13 -17 -17 -56 -22 -303
-42 -303 -24 0 7 -10 9 -24 5 -14 -3 -28 -1 -31 5 -4 6 -13 8 -21 5 -7 -3 -16
-1 -19 4 -4 6 -19 10 -36 10 -16 0 -29 4 -29 8 0 4 -17 14 -37 21 -21 8 -40
17 -43 21 -3 4 -24 17 -48 29 -24 12 -45 28 -49 36 -3 8 -12 15 -19 15 -8 0
-17 7 -21 16 -3 8 -12 13 -19 10 -7 -3 -11 0 -9 7 3 7 -11 30 -31 52 -19 22
-46 64 -60 93 -14 28 -29 52 -33 52 -5 0 -14 27 -22 60 -7 33 -17 60 -21 60
-4 0 -5 7 -2 15 3 8 1 28 -4 45 -11 29 -10 30 20 30 23 0 29 4 24 16 -3 9 -6
25 -6 37 0 20 0 20 -15 1 -13 -17 -14 -14 -15 37 0 65 22 146 47 174 10 11 25
29 33 40 14 19 14 19 -5 5 -11 -8 -26 -22 -33 -30 -11 -13 -12 -11 -6 10 23
88 119 214 217 287 61 44 98 59 59 23 -12 -12 -22 -26 -22 -33 0 -8 3 -8 8 -2
11 16 80 65 90 65 5 0 30 9 54 20 105 46 291 49 412 6z m-897 -308 c-3 -8 -6
-5 -6 6 -1 11 2 17 5 13 3 -3 4 -12 1 -19z m1413 -512 c0 -3 -4 -8 -10 -11 -5
-3 -10 -1 -10 4 0 6 5 11 10 11 6 0 10 -2 10 -4z m-22 -71 c-3 -3 -9 2 -12 12
-6 14 -5 15 5 6 7 -7 10 -15 7 -18z m-458 -374 c0 -18 -97 -43 -185 -48 -99
-6 -215 9 -255 33 l-25 15 30 -6 c68 -15 310 -15 370 -2 33 8 61 15 63 16 1 0
2 -3 2 -8z"/>
<path d="M1075 1440 c-11 -4 -31 -20 -45 -35 -20 -21 -25 -37 -25 -80 0 -46 4
-58 29 -84 35 -37 81 -47 131 -31 95 31 101 187 10 226 -38 16 -70 17 -100 4z
m75 -10 c40 -21 51 -149 17 -193 -21 -26 -52 -29 -80 -6 -25 19 -27 27 -27 90
0 61 3 73 25 94 27 28 37 30 65 15z"/>
<path d="M760 1393 l0 -48 20 43 c13 29 25 42 40 42 19 0 20 -6 20 -104 0
-101 -1 -105 -22 -108 -13 -3 6 -6 40 -9 35 -2 66 -1 69 4 2 4 -5 7 -16 7 -20
0 -21 6 -21 105 0 77 3 105 13 105 22 0 41 -19 54 -52 l11 -33 1 48 1 47 -105
0 -105 0 0 -47z"/>
<path d="M1298 1433 c21 -4 22 -8 22 -109 0 -100 -1 -104 -22 -104 -12 0 -18
-3 -15 -7 10 -9 118 -10 124 0 2 4 -5 7 -16 7 -18 0 -21 6 -21 44 l0 43 45 6
c78 8 110 62 65 107 -17 17 -32 20 -112 19 -51 -1 -83 -4 -70 -6z m142 -24
c17 -31 8 -62 -23 -77 -43 -21 -52 -11 -49 47 4 49 5 51 33 51 18 0 32 -7 39
-21z"/>
<path d="M1492 1034 c-12 -8 -22 -22 -22 -30 0 -20 9 -17 36 11 29 31 42 31
89 -1 26 -17 36 -20 32 -10 -4 9 -2 16 3 16 5 0 7 7 3 16 -4 11 -8 12 -13 4
-6 -9 -13 -9 -28 -1 -29 16 -74 14 -100 -5z"/>
<path d="M624 1025 c15 -8 35 -15 43 -15 8 0 12 -4 8 -9 -3 -5 0 -13 6 -17 8
-5 9 -3 4 6 -5 8 -3 11 6 8 8 -3 13 -11 11 -17 -1 -7 2 -10 8 -6 11 7 6 19
-18 48 -10 11 -29 17 -56 17 l-41 0 29 -15z"/>
<path d="M785 1026 c14 -10 21 -31 26 -73 l6 -58 2 55 c1 59 7 74 31 83 8 3
-7 6 -34 6 -45 1 -48 0 -31 -13z"/>
<path d="M898 1030 c17 -7 22 -17 22 -44 0 -29 3 -33 19 -29 14 3 21 15 23 37
2 24 8 32 27 34 42 6 71 -7 85 -41 l14 -32 1 43 1 42 -107 -1 c-75 0 -101 -3
-85 -9z"/>
<path d="M1117 1034 c7 -3 17 -20 23 -39 7 -23 18 -34 35 -38 14 -2 25 -3 25
-2 0 1 -5 17 -11 35 -9 26 -9 34 2 41 9 6 -4 8 -36 8 -27 0 -45 -3 -38 -5z"/>
<path d="M1248 1030 c26 -11 27 -20 6 -89 -8 -29 -14 -55 -11 -57 2 -2 9 14
16 35 9 32 17 40 39 43 28 3 29 7 18 45 -5 16 -2 23 11 26 10 3 -9 5 -42 5
-45 1 -54 -1 -37 -8z"/>
<path d="M1389 1031 c10 -7 12 -21 7 -52 l-6 -44 20 45 c12 24 26 48 33 52 7
4 -6 8 -28 8 -27 0 -35 -3 -26 -9z"/>
<path d="M1507 959 c7 -7 15 -10 18 -7 3 3 -2 9 -12 12 -14 6 -15 5 -6 -5z"/>
<path d="M1171 924 c0 -11 3 -14 6 -6 3 7 2 16 -1 19 -3 4 -6 -2 -5 -13z"/>
<path d="M1000 920 c19 -13 30 -13 30 0 0 6 -10 10 -22 10 -19 0 -20 -2 -8
-10z"/>
<path d="M1201 914 c0 -11 3 -14 6 -6 3 7 2 16 -1 19 -3 4 -6 -2 -5 -13z"/>
<path d="M1530 920 c-9 -6 -10 -10 -3 -10 6 0 15 5 18 10 8 12 4 12 -15 0z"/>
<path d="M760 916 c0 -2 8 -10 18 -17 15 -13 16 -12 3 4 -13 16 -21 21 -21 13z"/>
<path d="M945 890 c3 -5 8 -10 11 -10 2 0 4 5 4 10 0 6 -5 10 -11 10 -5 0 -7
-4 -4 -10z"/>
<path d="M1211 874 c0 -11 3 -14 6 -6 3 7 2 16 -1 19 -3 4 -6 -2 -5 -13z"/>
<path d="M1460 876 c0 -8 4 -17 9 -20 5 -4 7 3 4 14 -6 23 -13 26 -13 6z"/>
<path d="M1081 864 c0 -11 3 -14 6 -6 3 7 2 16 -1 19 -3 4 -6 -2 -5 -13z"/>
<path d="M766 858 c3 -5 10 -6 15 -3 13 9 11 12 -6 12 -8 0 -12 -4 -9 -9z"/>
<path d="M1337 851 c-4 -17 -3 -21 5 -13 5 5 8 16 6 23 -3 8 -7 3 -11 -10z"/>
<path d="M945 850 c3 -5 8 -10 11 -10 2 0 4 5 4 10 0 6 -5 10 -11 10 -5 0 -7
-4 -4 -10z"/>
<path d="M790 839 c0 -5 5 -7 10 -4 6 3 10 8 10 11 0 2 -4 4 -10 4 -5 0 -10
-5 -10 -11z"/>
<path d="M920 831 c0 -5 -8 -12 -17 -14 -14 -4 -12 -5 5 -6 13 -1 22 5 22 14
0 8 -2 15 -5 15 -3 0 -5 -4 -5 -9z"/>
<path d="M1045 820 c-17 -8 -17 -9 7 -7 15 1 24 5 22 9 -3 4 -6 8 -7 7 -1 0
-11 -4 -22 -9z"/>
<path d="M1465 820 c3 -5 8 -10 11 -10 2 0 4 5 4 10 0 6 -5 10 -11 10 -5 0 -7
-4 -4 -10z"/>
<path d="M968 813 c7 -3 16 -2 19 1 4 3 -2 6 -13 5 -11 0 -14 -3 -6 -6z"/>
<path d="M350 1560 c-6 -11 -8 -20 -6 -20 3 0 10 9 16 20 6 11 8 20 6 20 -3 0
-10 -9 -16 -20z"/>
<path d="M1870 719 c0 -5 5 -7 10 -4 6 3 10 8 10 11 0 2 -4 4 -10 4 -5 0 -10
-5 -10 -11z"/>
<path d="M1864 679 c-3 -6 -2 -15 3 -20 5 -5 9 -1 9 11 0 23 -2 24 -12 9z"/>
<path d="M1558 363 c7 -3 16 -2 19 1 4 3 -2 6 -13 5 -11 0 -14 -3 -6 -6z"/>
</g>
</svg>
